<?xml version="1.0" standalone="no"?>
<!DOCTYPE svg PUBLIC "-//W3C//DTD SVG 20010904//EN"
 "http://www.w3.org/TR/2001/REC-SVG-20010904/DTD/svg10.dtd">
<svg version="1.0" xmlns="http://www.w3.org/2000/svg"
 width="672.000000pt" height="1770.000000pt" viewBox="0 0 672.000000 1770.000000"
 preserveAspectRatio="xMidYMid meet">

<g transform="translate(0.000000,1770.000000) scale(0.100000,-0.100000)"
fill="#000000" stroke="none">
<path d="M5850 17689 c-25 -6 -97 -22 -160 -36 -232 -51 -393 -113 -485 -188
-90 -74 -165 -104 -345 -137 -108 -21 -147 -22 -675 -23 -614 -2 -741 -9
-1071 -65 -1010 -170 -1792 -663 -2317 -1462 -203 -309 -339 -589 -466 -962
-171 -500 -274 -1046 -311 -1646 -12 -202 -13 -642 -1 -806 l9 -121 207 -544
c123 -323 216 -553 229 -567 28 -29 73 -41 114 -30 47 13 171 138 215 218 20
36 47 100 61 143 47 143 57 232 66 572 9 339 14 381 65 525 39 107 122 277
199 404 103 172 69 156 343 156 l233 0 0 -194 c0 -212 15 -357 56 -545 17 -76
54 -376 108 -873 45 -416 85 -761 90 -765 18 -18 595 -10 888 14 l78 6 2
-4833 3 -4832 175 -170 c96 -94 238 -232 315 -307 340 -331 612 -589 632 -599
31 -17 64 -15 95 6 15 9 98 107 184 217 87 110 338 427 558 704 220 277 408
520 418 540 10 19 18 45 18 58 0 12 -79 245 -175 518 -96 272 -175 506 -175
520 0 13 68 169 151 347 83 177 153 334 155 348 3 14 -11 156 -30 315 -20 160
-36 311 -36 336 0 56 21 86 85 123 25 15 52 40 60 56 34 65 30 77 -266 768
-274 639 -284 660 -360 767 -64 88 -79 117 -79 146 0 33 128 366 152 396 5 6
78 52 163 103 85 50 160 101 168 113 7 12 48 108 91 214 43 105 88 200 100
211 11 10 167 107 346 215 179 108 336 207 349 220 31 34 43 133 39 321 l-3
151 -145 245 -144 245 -3 360 c-2 198 -4 857 -6 1464 l-2 1104 27 -61 c24 -54
34 -65 79 -87 255 -130 495 -366 621 -611 84 -164 123 -302 136 -484 6 -91 9
-105 26 -108 16 -3 18 2 14 45 -3 26 -37 515 -77 1086 l-73 1037 -107 392
-107 391 -265 95 c-145 52 -268 97 -272 102 -4 4 5 28 20 54 27 44 37 51 231
146 l203 100 133 0 132 0 28 -97 c25 -85 79 -193 143 -288 11 -16 13 235 13
1513 0 1298 -2 1532 -14 1532 -17 0 -26 -31 -26 -95 0 -165 -69 -412 -173
-620 -87 -176 -209 -359 -350 -528 l-24 -28 -92 90 c-309 301 -663 508 -1071
626 l-115 33 -3 259 -2 260 127 139 c452 491 604 690 745 975 54 107 139 259
189 339 121 191 132 213 124 248 -15 70 -89 102 -185 81z m-1047 -1796 c4 -2
7 -115 7 -250 l0 -245 -23 6 c-146 36 -457 58 -658 45 -616 -38 -1167 -282
-1603 -708 -353 -346 -580 -736 -696 -1200 -26 -106 -56 -270 -62 -346 l-3
-30 -223 -3 -222 -2 6 42 c71 484 259 995 512 1388 217 338 538 659 857 857
430 268 935 418 1520 453 134 8 572 3 588 -7z m1816 -852 c-557 -957 -1732
-1833 -3424 -2556 -432 -184 -1029 -400 -1266 -458 l-27 -7 -6 78 c-4 42 -9
89 -12 103 -5 27 -3 28 153 79 1566 519 2989 1299 3940 2161 286 260 516 588
637 912 20 53 42 121 49 150 11 48 12 35 15 -152 l2 -204 -61 -106z m-2039
359 c537 -68 1030 -305 1427 -684 51 -48 93 -94 93 -102 0 -15 -185 -187 -350
-325 -834 -696 -1997 -1343 -3260 -1812 -206 -77 -587 -207 -605 -207 -14 0
-46 139 -72 310 -21 134 -23 526 -5 655 59 407 183 742 396 1065 421 638 1085
1034 1860 1110 109 10 398 5 516 -10z m2100 -1382 l-1 -1043 -24 40 c-21 33
-54 127 -91 258 -5 15 -21 17 -145 17 l-140 0 -219 -106 -219 -107 -42 -70
c-31 -51 -38 -71 -29 -77 7 -4 135 -51 285 -105 l271 -96 103 -377 103 -377
59 -840 c32 -462 58 -851 58 -865 l0 -25 -11 25 c-139 322 -337 549 -635 726
l-111 67 -198 454 c-167 386 -201 456 -222 464 -14 5 -91 22 -171 37 -132 24
-169 26 -376 26 -218 0 -235 -1 -329 -27 -317 -86 -511 -283 -580 -587 -21
-97 -25 -104 -62 -132 -234 -176 -876 -297 -1771 -334 l-162 -7 -5 34 c-7 36
-106 961 -106 983 0 7 24 18 53 25 109 28 461 146 702 236 1085 405 2074 933
2790 1489 502 389 918 835 1162 1242 30 52 57 94 59 94 2 0 4 -469 4 -1042z
m-1515 -2019 c44 -5 130 -19 191 -31 l111 -21 157 -361 156 -361 1 -730 c1
-401 4 -1081 8 -1510 l6 -780 145 -245 145 -245 -3 -185 c-2 -102 -8 -200 -13
-217 -9 -29 -46 -54 -347 -234 -185 -111 -349 -213 -364 -228 -18 -17 -55 -95
-110 -230 l-83 -204 -158 -96 c-88 -53 -167 -108 -176 -121 -25 -35 -161 -374
-161 -400 0 -36 26 -86 98 -187 64 -91 91 -148 351 -753 154 -361 281 -667
281 -680 -1 -40 -24 -71 -81 -109 -35 -23 -61 -50 -73 -76 l-20 -39 38 -311
c20 -170 37 -324 36 -342 0 -20 -57 -154 -150 -353 -122 -262 -150 -330 -150
-365 0 -32 48 -181 170 -525 94 -264 170 -495 170 -513 -1 -17 -6 -41 -13 -53
-7 -12 -196 -253 -422 -537 l-410 -517 -5 4883 -5 4882 -22 47 c-52 112 -138
224 -195 254 -15 8 -45 14 -67 14 -70 0 -129 -67 -188 -215 l-28 -70 -5 -5023
-5 -5022 -158 152 -157 153 -9 4150 -8 4150 -27 67 c-90 218 -198 216 -281 -5
l-25 -67 0 -3983 0 -3982 -147 148 -148 147 -3 4820 -2 4820 22 4 c13 2 86 12
163 21 376 44 651 132 763 243 59 58 72 94 72 199 0 48 9 129 19 178 96 465
485 672 1116 594z m-1199 -904 c-117 -199 -770 -325 -1683 -325 l-242 0 -5 33
c-17 112 -17 117 2 117 64 0 457 23 612 36 630 51 1109 161 1300 297 l35 25 3
-70 c2 -60 -1 -76 -22 -113z"/>
</g>
</svg>
